PathFileType	4	(X/Y/Z)	5_coords_data.trc
DataRate	CameraRate	NumFrames	NumMarkers	Units	OrigDataRate	OrigDataStartFrame	OrigNumFrames
30.0	30.0	7	21	m	30.0	1	77
Frame#	Time	THUMB_TIP	THUMB_IP	THUMB_MCP	THUMB_CMC	INDEX_TIP	INDEX_DIP	INDEX_PIP	INDEX_MCP	MIDDLE_TIP	MIDDLE_DIP	MIDDLE_PIP	MIDDLE_MCP	RING_TIP	RING_DIP	RING_PIP	RING_MCP	PINKY_TIP	PINKY_DIP	PINKY_PIP	PINKY_MCP	WRIST
X1	Y1	Z1	X2	Y2	Z2	X3	Y3	Z3	X4	Y4	Z4	X5	Y5	Z5	X6	Y6	Z6	X7	Y7	Z7	X8	Y8	Z8	X9	Y9	Z9	X10	Y10	Z10	X11	Y11	Z11	X12	Y12	Z12	X13	Y13	Z13	X14	Y14	Z14	X15	Y15	Z15	X16	Y16	Z16	X17	Y17	Z17	X18	Y18	Z18	X19	Y19	Z19	X20	Y20	Z20	X21	Y21	Z21
0	0.0	-0.016523799896240234	-0.05536669921875	0.9844979858398437	-0.009393280029296874	-0.07637889862060547	0.9912449951171876	-0.02355660057067871	-0.08467070007324219	1.017739990234375	-0.03717580032348633	-0.055931800842285155	1.02852001953125	-0.019409000396728517	-0.060168701171875	1.019280029296875	-0.02244969940185547	-0.06884480285644531	0.999405029296875	-0.0257322998046875	-0.07842870330810547	0.9795780029296876	-0.06591490173339844	-0.0791968994140625	0.985989990234375	-0.02086870002746582	-0.04541519927978516	1.0193499755859374	-0.023606800079345704	-0.05200790023803711	0.99902001953125	-0.025700199127197267	-0.0596953010559082	0.9729920043945313	-0.06778859710693359	-0.0616859016418457	0.9763900146484376	-0.028120899200439455	-0.03477059936523438	1.0224199829101563	-0.02447179985046387	-0.03841960144042969	1.002489990234375	-0.024849599838256835	-0.041052898406982424	0.9768170166015625	-0.06614920043945313	-0.042913700103759764	0.97735498046875	-0.028612600326538087	-0.025061899185180665	1.023760009765625	-0.02497369956970215	-0.02623870086669922	1.0045999755859376	-0.023663000106811525	-0.026334100723266602	0.985156005859375	-0.05589810180664063	-0.02444650077819824	0.980593994140625	-0.05218500137329102	-0.030543100357055663	1.0430699462890625
1	0.03333333333333333	-0.01619420051574707	-0.05481660079956055	0.9854879760742188	-0.010746999740600586	-0.07578730010986329	0.9930050048828125	-0.023329900741577148	-0.08465390014648437	1.017969970703125	-0.03326319885253906	-0.05693349838256836	1.029760009765625	-0.020847900390625	-0.059701801300048825	1.0168800048828126	-0.023147899627685545	-0.06916410064697266	0.9999949951171875	-0.025932600021362304	-0.0782968978881836	0.9804130249023437	-0.06543219757080078	-0.07961519622802735	0.9852880249023438	-0.027255300521850587	-0.05273440170288086	1.0108499755859375	-0.024341400146484376	-0.05271200180053711	1.0008099975585938	-0.025941200256347656	-0.05982780075073242	0.9744420166015625	-0.0681855010986328	-0.06099700164794922	0.9792009887695312	-0.029974399566650392	-0.03488349914550781	1.021989990234375	-0.025740100860595704	-0.03881790161132812	1.0018400268554688	-0.024537599563598633	-0.04157160186767578	0.97685302734375	-0.0654760971069336	-0.0423031005859375	0.9783709716796875	-0.036235198974609376	-0.025321300506591798	1.0116099853515625	-0.024952999114990236	-0.02538629913330078	1.0035399780273437	-0.02468709945678711	-0.02576969909667969	0.9847050170898437	-0.054153999328613284	-0.02455710029602051	0.980302001953125	-0.05326200103759766	-0.029282800674438475	1.045239990234375
2	0.06666666666666667	-0.01601110076904297	-0.05481039810180664	0.9857969970703125	-0.01060789966583252	-0.07580879974365234	0.99364697265625	-0.02340530014038086	-0.08493710327148438	1.0180399780273437	-0.033097900390625	-0.057086700439453124	1.029719970703125	-0.020304000854492188	-0.06010979843139649	1.0174199829101562	-0.022809700012207033	-0.06903410339355469	1.000260009765625	-0.02556789970397949	-0.07827110290527343	0.9806829833984375	-0.06518360137939454	-0.07966010284423829	0.985375	-0.02757270050048828	-0.052728500366210934	1.0111500244140625	-0.02423929977416992	-0.05284389877319336	1.0009400024414064	-0.02566469955444336	-0.05987379837036133	0.9746069946289062	-0.06799659729003907	-0.06100469970703125	0.9792329711914063	-0.031090999603271486	-0.0359994010925293	1.0225999755859374	-0.02557270050048828	-0.038808799743652346	1.002010009765625	-0.024242399215698242	-0.04164989852905274	0.9770269775390625	-0.06511940002441406	-0.042392101287841794	0.9781079711914062	-0.03612789916992187	-0.025325700759887694	1.0116799926757813	-0.024703399658203125	-0.02550860023498535	1.0034500122070313	-0.02439520072937012	-0.02584040069580078	0.9848489990234375	-0.05386130142211914	-0.024587499618530274	0.9802849731445312	-0.05309769821166992	-0.029333200454711914	1.0453199462890626
3	0.1	-0.015960399627685546	-0.055120399475097656	0.986405029296875	-0.01066390037536621	-0.07624539947509766	0.9934290161132813	-0.02342519950866699	-0.085197998046875	1.0181300048828126	-0.03303609848022461	-0.05725360107421875	1.029719970703125	-0.020713600158691406	-0.059708301544189456	1.01675	-0.022913700103759767	-0.06933480072021485	1.0003300170898437	-0.02554509925842285	-0.07851920318603516	0.980718994140625	-0.06520169830322266	-0.07975170135498047	0.9853590087890625	-0.026939599990844727	-0.05278450012207031	1.0107000122070313	-0.02413319969177246	-0.053048500061035155	1.0011799926757812	-0.025572900772094728	-0.060059501647949216	0.9747260131835938	-0.06793309783935547	-0.06108300018310547	0.97927001953125	-0.03297389984130859	-0.0383115005493164	1.0145399780273439	-0.02546380043029785	-0.03913320159912109	1.0021599731445312	-0.024075899124145508	-0.04186149978637695	0.9770969848632812	-0.06496839904785157	-0.04245819854736328	0.978219970703125	-0.0363317985534668	-0.02566069984436035	1.0111799926757812	-0.02463400077819824	-0.02575040054321289	1.0036199951171876	-0.024186599731445314	-0.026059200286865234	0.9849569702148437	-0.053645198822021484	-0.02468000030517578	0.9803590087890625	-0.0529635009765625	-0.02945159912109375	1.045219970703125
4	0.13333333333333333	-0.015727899551391603	-0.05514260101318359	0.9864559936523437	-0.010737000465393066	-0.07639430236816407	0.9936329956054688	-0.023588600158691405	-0.08541390228271484	1.0182100219726562	-0.033183101654052735	-0.05750859832763672	1.0298299560546875	-0.02099850082397461	-0.060884601593017576	1.01797998046875	-0.02284160041809082	-0.0694843978881836	1.0005999755859376	-0.025503299713134767	-0.07865670013427735	0.9808679809570312	-0.065177001953125	-0.07986329650878907	0.9854749755859376	-0.027119400024414063	-0.05344350051879883	1.0114099731445312	-0.024163900375366212	-0.05328379821777344	1.001219970703125	-0.02551029968261719	-0.06018370056152344	0.9748359985351562	-0.06786920166015625	-0.061176498413085936	0.9793720092773438	-0.030489400863647462	-0.03577059936523438	1.023	-0.025422800064086915	-0.039236400604248045	1.0023599853515626	-0.023934499740600586	-0.04198429870605469	0.977333984375	-0.06476850128173828	-0.04263449859619141	0.97822802734375	-0.03574129867553711	-0.02522369956970215	1.0129199829101563	-0.024492000579833983	-0.025925399780273438	1.0035800170898437	-0.024035499572753905	-0.02623740005493164	0.9853079833984375	-0.053472698211669924	-0.024815000534057618	0.9804450073242188	-0.052817401885986326	-0.02962380027770996	1.0454200439453125
5	0.16666666666666666	-0.01579290008544922	-0.055355598449707034	0.9869409790039062	-0.010784700393676757	-0.0765165023803711	0.993948974609375	-0.023790199279785155	-0.0856697998046875	1.0182999877929688	-0.03304470062255859	-0.057581298828125	1.0298499755859376	-0.020640199661254882	-0.0600900993347168	1.0178400268554688	-0.0228533992767334	-0.06965869903564453	1.0007100219726563	-0.025463899612426757	-0.07877790069580078	0.9809619750976563	-0.06524980163574219	-0.0799363021850586	0.9855640258789062	-0.027425100326538086	-0.05365629959106445	1.0115999755859375	-0.024085899353027344	-0.05333589935302734	1.0013699951171875	-0.02550279998779297	-0.06031639862060547	0.9749110107421874	-0.0678478012084961	-0.061238800048828125	0.9794840087890625	-0.03043009948730469	-0.03648249816894531	1.02297998046875	-0.025389400482177735	-0.039375301361083984	1.0024400024414062	-0.02384309959411621	-0.042112598419189455	0.9774719848632812	-0.0646865005493164	-0.042696701049804685	0.9785059814453125	-0.035760501861572265	-0.02575869941711426	1.0119099731445313	-0.024461500167846678	-0.02603160095214844	1.0037999877929686	-0.023916900634765623	-0.02640559959411621	0.9854409790039063	-0.053331298828125	-0.024929899215698242	0.9806170043945313	-0.05269290161132813	-0.029615100860595704	1.045469970703125
6	0.2	-0.015780400276184083	-0.05539789962768555	0.9869860229492188	-0.010800600051879883	-0.07681020355224609	0.993906982421875	-0.02386639976501465	-0.08568959808349609	1.0184199829101563	-0.03303440093994141	-0.057657798767089846	1.029969970703125	-0.021003900527954103	-0.060171199798583985	1.0181500244140624	-0.022886499404907227	-0.06978379821777343	1.0006300048828125	-0.02558720016479492	-0.07892340087890624	0.9809249877929688	-0.06517819976806641	-0.08003720092773438	0.9858660278320313	-0.027065799713134765	-0.053611198425292966	1.0110900268554688	-0.024121599197387697	-0.05345399856567383	1.00147998046875	-0.02554360008239746	-0.06040779876708984	0.9749769897460937	-0.06785009765625	-0.06134130096435547	0.9796409912109375	-0.03213949966430664	-0.038252300262451175	1.016260009765625	-0.025303199768066408	-0.03953139877319336	1.0026599731445311	-0.023807899475097656	-0.04221670150756836	0.9776229858398438	-0.06469499969482422	-0.04276259994506836	0.9785	-0.03576689910888672	-0.025796300888061525	1.0120499877929687	-0.024472400665283202	-0.02613039970397949	1.0039199829101562	-0.023788700103759764	-0.02652510070800781	0.985739013671875	-0.05322050094604492	-0.02498990058898926	0.980708984375	-0.052684398651123045	-0.029600400924682618	1.0454200439453125
